<svg width="153" height="152" viewBox="0 0 153 152" fill="none" xmlns="http://www.w3.org/2000/svg">
<rect width="35" height="35" rx="5" fill="#B9F1E4"/>
<rect y="39" width="35" height="35" rx="5" fill="#9CF9E2"/>
<rect y="78" width="35" height="35" rx="5" fill="#E9CAEE"/>
<rect y="117" width="35" height="35" rx="5" fill="#E27CF2"/>
<rect x="39" width="35" height="35" rx="5" fill="#92CBBD"/>
<rect x="39" y="39" width="35" height="35" rx="5" fill="#67D2B9"/>
<rect x="39" y="78" width="35" height="35" rx="5" fill="#C59ECB"/>
<rect x="39" y="117" width="35" height="35" rx="5" fill="#BA5BCA"/>
<rect x="78" width="35" height="35" rx="5" fill="#497E71"/>
<rect x="117.435" width="35" height="35" rx="5" fill="#314540"/>
<rect x="78" y="39" width="35" height="35" rx="5" fill="#12A07D"/>
<rect x="117.435" y="39" width="35" height="35" rx="5" fill="#094D3C"/>
<rect x="78" y="78" width="35" height="35" rx="5" fill="#9B70A2"/>
<rect x="117.435" y="78" width="35" height="35" rx="5" fill="#523C56"/>
<rect x="78" y="117" width="35" height="35" rx="5" fill="#9621A9"/>
<rect x="117.435" y="117" width="35" height="35" rx="5" fill="#491053"/>
</svg>
